<?xml version="1.0" standalone="no"?>
<!DOCTYPE svg PUBLIC "-//W3C//DTD SVG 20010904//EN"
 "http://www.w3.org/TR/2001/REC-SVG-20010904/DTD/svg10.dtd">
<svg version="1.0" xmlns="http://www.w3.org/2000/svg"
 width="500.000000pt" height="500.000000pt" viewBox="0 0 500.000000 500.000000"
 preserveAspectRatio="xMidYMid meet">

<g transform="translate(0.000000,500.000000) scale(0.100000,-0.100000)"
fill="#000000" stroke="none">
<path d="M1700 3895 c-28 -34 3 -251 50 -347 l19 -40 -45 -56 c-73 -90 -104
-162 -123 -290 -23 -148 29 -323 131 -446 l41 -48 -12 -50 c-17 -77 -14 -204
9 -285 77 -278 331 -474 755 -583 167 -43 284 -59 477 -66 214 -8 223 -5 231
68 4 29 13 105 22 168 27 210 19 479 -21 702 -6 33 -2 43 41 100 62 81 101
165 120 256 19 90 19 127 1 217 -22 116 -61 197 -132 275 l-36 40 20 43 c45
95 57 150 57 252 0 111 -9 125 -56 84 -37 -32 -133 -86 -185 -104 -80 -27
-150 -29 -244 -7 -47 11 -110 26 -140 33 -30 7 -115 13 -190 12 -118 0 -151
-4 -257 -32 -68 -17 -140 -31 -160 -31 -75 0 -198 44 -283 100 -78 52 -76 51
-90 35z m429 -416 c85 -15 147 -46 205 -105 82 -81 125 -205 106 -304 -15 -77
-14 -80 20 -68 34 11 77 4 101 -18 16 -14 16 -10 1 56 -18 81 -8 156 30 236
101 215 393 275 576 118 81 -69 125 -169 124 -283 -1 -213 -157 -371 -367
-371 -111 0 -174 27 -257 110 l-66 66 -6 -30 c-13 -64 -50 -102 -148 -151 -51
-26 -95 -50 -98 -53 -3 -4 -14 -14 -24 -22 -19 -15 -19 -13 -12 72 l7 87 -72
-37 c-69 -35 -76 -37 -173 -37 -88 0 -108 3 -156 26 -157 74 -239 232 -211
402 14 78 46 141 106 202 65 66 110 87 244 114 2 1 34 -4 70 -10z"/>
<path d="M1991 3263 c-46 -23 -91 -95 -91 -147 1 -101 74 -176 171 -176 103 0
174 69 174 171 0 49 -5 63 -31 96 -17 21 -46 46 -65 55 -43 22 -114 23 -158 1z"/>
<path d="M2833 3255 c-82 -49 -106 -161 -51 -241 54 -78 170 -99 245 -45 108
78 90 245 -30 296 -55 23 -115 19 -164 -10z"/>
<path d="M3287 1470 c-47 -14 -98 -60 -119 -108 -30 -66 -22 -157 18 -214 104
-149 340 -113 390 60 31 104 -16 210 -111 253 -42 20 -129 24 -178 9z m143
-98 c37 -27 63 -85 55 -122 -9 -39 -47 -84 -84 -100 -69 -28 -151 38 -151 121
0 102 101 158 180 101z"/>
<path d="M1430 1448 c5 -13 34 -93 65 -178 31 -85 61 -168 67 -183 10 -26 14
-28 61 -25 32 2 53 8 58 18 13 26 45 102 70 168 13 34 26 62 29 62 3 0 27 -56
54 -125 l49 -125 52 0 52 0 33 88 c18 48 53 136 77 197 24 60 43 113 43 117 0
4 -24 8 -54 8 l-53 0 -17 -47 c-48 -132 -59 -160 -71 -188 l-12 -30 -11 35
c-6 19 -26 78 -45 130 l-34 95 -55 3 -55 3 -33 -83 c-17 -46 -41 -107 -53
-137 -17 -44 -22 -51 -28 -35 -5 10 -27 72 -50 137 l-42 117 -53 0 c-52 0 -53
-1 -44 -22z"/>
<path d="M2170 1264 l0 -205 50 3 51 3 2 203 3 202 -53 0 -53 0 0 -206z"/>
<path d="M2350 1265 l0 -205 123 0 c107 0 128 3 167 23 36 17 48 30 58 61 15
46 2 98 -29 120 -20 13 -20 14 2 51 30 50 18 100 -30 132 -31 21 -45 23 -162
23 l-129 0 0 -205z m224 119 c19 -7 21 -45 4 -62 -7 -7 -38 -12 -70 -12 l-58
0 0 40 0 40 54 0 c30 0 61 -3 70 -6z m10 -170 c39 -39 12 -67 -68 -72 l-66 -4
0 46 0 46 59 0 c41 0 65 -5 75 -16z"/>
<path d="M2760 1265 l0 -205 123 0 c177 1 228 27 229 120 0 40 -23 90 -42 90
-6 0 -10 7 -10 15 0 8 4 15 9 15 16 0 31 63 23 95 -5 17 -23 40 -42 53 -30 20
-45 22 -161 22 l-129 0 0 -205z m224 119 c19 -7 21 -45 4 -62 -7 -7 -38 -12
-70 -12 l-58 0 0 40 0 40 54 0 c30 0 61 -3 70 -6z m10 -170 c40 -40 6 -74 -75
-74 l-59 0 0 45 0 45 59 0 c41 0 65 -5 75 -16z"/>
</g>
</svg>
